<svg width="90" height="91" viewBox="0 0 90 91" fill="none" xmlns="http://www.w3.org/2000/svg">
<g clip-path="url(#clip0_25_28)">
<path d="M45.9184 37.2274V54.8484H70.6309C69.5457 60.5152 66.2893 65.3136 61.4053 68.54L76.3079 79.9978C84.9907 72.0562 90 60.3915 90 46.5347C90 43.3084 89.7079 40.2058 89.165 37.2279L45.9184 37.2274Z" fill="#4285F4"/>
<path d="M20.1843 54.1606L16.8232 56.71L4.92593 65.8926C12.4816 80.7421 27.9676 91.0005 45.9174 91.0005C58.3152 91.0005 68.7093 86.9468 76.3069 79.9979L61.4043 68.54C57.3134 71.27 52.0953 72.9247 45.9174 72.9247C33.9787 72.9247 23.8351 64.9415 20.2031 54.1868L20.1843 54.1606Z" fill="#34A853"/>
<path d="M4.92598 25.1079C1.79533 31.2295 0.000518799 38.1373 0.000518799 45.5C0.000518799 52.8626 1.79533 59.7705 4.92598 65.8921C4.92598 65.9332 20.2046 54.1448 20.2046 54.1448C19.2862 51.4148 18.7434 48.5195 18.7434 45.4995C18.7434 42.4796 19.2862 39.5843 20.2046 36.8543L4.92598 25.1079Z" fill="#FBBC05"/>
<path d="M45.9184 18.1174C52.681 18.1174 58.6921 20.4337 63.4927 24.901L76.642 11.8716C68.6688 4.50894 58.3166 0 45.9184 0C27.9685 0 12.4816 10.2169 4.92593 25.1079L20.2041 36.8552C23.8356 26.1005 33.9796 18.1174 45.9184 18.1174Z" fill="#EA4335"/>
</g>
<defs>
<clipPath id="clip0_25_28">
<rect width="90" height="91" fill="white"/>
</clipPath>
</defs>
</svg>
