<svg width="75" height="91" viewBox="0 0 75 91" fill="none" xmlns="http://www.w3.org/2000/svg">
<path d="M71.6454 31.0219C71.1182 31.4314 61.8091 36.6821 61.8091 48.3574C61.8091 61.8618 73.6545 66.6393 74.0091 66.7576C73.9545 67.0488 72.1273 73.3005 67.7636 79.6705C63.8727 85.2761 59.8091 90.8726 53.6273 90.8726C47.4455 90.8726 45.8545 87.2781 38.7182 87.2781C31.7636 87.2781 29.2909 90.9909 23.6364 90.9909C17.9818 90.9909 14.0364 85.8039 9.5 79.4339C4.24545 71.9537 0 60.333 0 49.3038C0 31.6134 11.4909 22.2313 22.8 22.2313C28.8091 22.2313 33.8182 26.1807 37.5909 26.1807C41.1818 26.1807 46.7818 21.9947 53.6182 21.9947C56.2091 21.9947 65.5182 22.2313 71.6454 31.0219ZM50.3727 14.5054C53.2 11.1475 55.2 6.4883 55.2 1.8291C55.2 1.183 55.1455 0.5278 55.0273 0C50.4273 0.1729 44.9545 3.0667 41.6545 6.8978C39.0636 9.8462 36.6455 14.5054 36.6455 19.2283C36.6455 19.9381 36.7636 20.6479 36.8182 20.8754C37.1091 20.93 37.5818 20.9937 38.0545 20.9937C42.1818 20.9937 47.3727 18.2273 50.3727 14.5054Z" fill="black"/>
</svg>
