<svg width="174" height="76" viewBox="0 0 174 76" fill="none" xmlns="http://www.w3.org/2000/svg">
<g clip-path="url(#clip0_26_86)">
<path d="M13.269 66.8578C20.9363 66.8578 25.7677 60.9153 25.7677 53.9883V52.0896H12.4988V56.6607H20.6562C19.7109 60.0363 17.1552 62.2163 13.269 62.2163C8.29749 62.2163 4.72642 58.4188 4.72642 53.6719C4.72642 49.0304 8.3325 45.1274 13.0939 45.1274C16.4199 45.1274 18.8707 46.6042 20.4812 49.593L24.6824 47.0614C22.5118 43.1935 18.3455 40.486 13.0589 40.486C5.49665 40.486 0 46.3581 0 53.6719C0 60.8099 5.28659 66.8578 13.269 66.8578Z" fill="black"/>
<path d="M38.1163 66.9281C40.8121 66.9281 43.2628 65.7677 44.7683 63.8338V66.5061H49.4947V45.9361H44.7683V48.3975C43.2628 46.6042 40.8821 45.5142 38.1863 45.5142C33.0048 45.5142 28.0333 49.4172 28.0333 56.2387C28.0333 62.9899 33.1798 66.9281 38.1163 66.9281ZM38.8865 62.5679C35.3855 62.5679 32.6897 59.755 32.6897 56.1684C32.6897 52.617 35.3855 49.8392 38.8865 49.8392C42.4226 49.8392 45.0134 52.6522 45.0134 56.1684C45.0134 59.7198 42.4226 62.5679 38.8865 62.5679Z" fill="black"/>
<path d="M52.7554 66.5062H57.5169V40.486H52.7554V66.5062Z" fill="black"/>
<path d="M70.0285 66.9281C72.7243 66.9281 75.1751 65.7677 76.6805 63.8338V66.5061H81.4069V45.9361H76.6805V48.3975C75.1751 46.6042 72.7944 45.5142 70.0985 45.5142C64.917 45.5142 59.9455 49.4172 59.9455 56.2387C59.9455 62.9899 65.092 66.9281 70.0285 66.9281ZM70.7988 62.5679C67.2977 62.5679 64.6019 59.755 64.6019 56.1684C64.6019 52.617 67.2977 49.8392 70.7988 49.8392C74.3348 49.8392 76.9256 52.6522 76.9256 56.1684C76.9256 59.7198 74.3348 62.5679 70.7988 62.5679Z" fill="black"/>
<path d="M82.8086 66.5061H88.5853L93.4518 59.6495L98.4583 66.5061H104.235L96.3927 56.0981L103.745 45.9362H98.1432L93.5218 52.4764L88.8654 45.9362H83.0887L90.5109 56.0278L82.8086 66.5061Z" fill="black"/>
<path d="M108.314 76H113.11L125.329 45.9362H120.357L114.966 59.7901L109.259 45.9362H104.217L112.62 65.4864L108.314 76Z" fill="black"/>
<path d="M150.169 0.782257V25.1481H141.442L135.386 5.15152H135.255L135.592 25.1481H129.561V0.782257H138.665L144.3 20.1143H144.436L144.1 0.782257H150.169Z" fill="black"/>
<path d="M37.5098 25.4045L34.2431 3.06369H34.105L30.7472 25.4045H24.1278L28.6736 0.782257H39.5782L44.1031 25.4045H37.5098Z" fill="black"/>
<path d="M59.5379 0.782257L62.5649 19.6041H62.6952L65.7248 0.782257H75.7229L76.2543 25.4045H70.1273L69.9658 3.26776H69.8381L65.7404 25.4045H59.5196L55.4193 3.26776H55.2865L55.1328 25.4045H48.9927L49.5346 0.782257H59.5379Z" fill="black"/>
<path d="M13.8041 18.4582C14.0438 19.0547 13.9708 19.8213 13.8588 20.2843C13.653 21.1033 13.1008 21.9379 11.47 21.9379C9.93306 21.9379 9.00047 21.0535 9.00047 19.7009V17.3174H2.42539L2.42017 19.2247C2.42017 24.7138 6.72366 26.3699 11.3346 26.3699C15.7683 26.3699 19.4205 24.8472 20.0015 20.7448C20.2984 18.6177 20.077 17.2259 19.9754 16.7C18.9412 11.5458 9.63608 10.0074 8.94314 7.12425C8.82591 6.62976 8.85978 6.1065 8.91709 5.82655C9.08642 5.04165 9.62305 4.17565 11.1574 4.17565C12.5902 4.17565 13.4368 5.0652 13.4368 6.40999C13.4368 6.86261 13.4368 7.93007 13.4368 7.93007H19.5508V6.20068C19.5508 0.83722 14.7576 0 11.2851 0C6.92425 0 3.36058 1.44683 2.70932 5.45503C2.53218 6.56174 2.50613 7.54809 2.76403 8.78299C3.83469 13.8142 12.5433 15.2715 13.8041 18.4582Z" fill="black"/>
<path d="M93.523 18.4136C93.7653 19.0049 93.6871 19.7506 93.5777 20.2137C93.3771 21.03 92.8301 21.8515 91.2097 21.8515C89.6936 21.8515 88.7688 20.9672 88.7688 19.6459L88.7636 17.2834H82.2563L82.2484 19.1645C82.2484 24.5986 86.5129 26.2391 91.0769 26.2391C95.4637 26.2391 99.0821 24.7373 99.6526 20.6715C99.9496 18.5602 99.7386 17.1866 99.6318 16.6712C98.6028 11.5641 89.3914 10.0414 88.7063 7.18701C88.5891 6.69514 88.6229 6.1771 88.6828 5.91286C88.8574 5.12273 89.3836 4.27766 90.9023 4.27766C92.3221 4.27766 93.1505 5.14628 93.1505 6.4806C93.1505 6.92799 93.1505 7.98498 93.1505 7.98498H99.2176V6.27391C99.2176 0.968007 94.4634 0.136017 91.0248 0.136017C86.7134 0.136017 83.1784 1.56453 82.5402 5.54395C82.3631 6.63496 82.3448 7.603 82.5975 8.83267C83.6525 13.8115 92.2752 15.2584 93.523 18.4136Z" fill="black"/>
<path d="M114.116 21.7207C115.817 21.7207 116.348 20.5381 116.465 19.9337C116.515 19.6669 116.528 19.3111 116.523 18.9919V0.77179H122.723V18.4346C122.736 18.8872 122.691 19.8186 122.671 20.0515C122.236 24.6484 118.617 26.1397 114.113 26.1397C109.604 26.1397 105.983 24.6484 105.553 20.0515C105.532 19.8186 105.488 18.8872 105.501 18.4346V0.77179H111.696V18.9919C111.696 19.3111 111.706 19.6695 111.753 19.9337C111.886 20.5381 112.402 21.7207 114.116 21.7207Z" fill="black"/>
<path d="M165.258 21.4617C167.034 21.4617 167.654 20.3341 167.769 19.6774C167.813 19.3948 167.826 19.0521 167.823 18.7407V15.1668H165.307V11.572H174V18.1808C173.995 18.6413 173.984 18.9814 173.911 19.8029C173.502 24.2821 169.634 25.8807 165.289 25.8807C160.936 25.8807 157.073 24.2821 156.658 19.8029C156.588 18.9814 156.578 18.6413 156.57 18.1808L156.575 7.81234C156.575 7.37541 156.63 6.60098 156.677 6.19022C157.221 1.58811 160.936 0.107269 165.289 0.107269C169.637 0.107269 173.442 1.58026 173.893 6.19022C173.974 6.97512 173.948 7.81234 173.948 7.81234V8.63386H167.766V7.25506C167.771 7.25767 167.758 6.66901 167.685 6.31842C167.581 5.77423 167.11 4.52362 165.242 4.52362C163.455 4.52362 162.931 5.7062 162.801 6.31842C162.725 6.64284 162.697 7.08238 162.697 7.48006V18.7407C162.692 19.0521 162.71 19.3948 162.759 19.6774C162.866 20.3367 163.484 21.4617 165.258 21.4617Z" fill="black"/>
</g>
<defs>
<clipPath id="clip0_26_86">
<rect width="174" height="76" fill="white"/>
</clipPath>
</defs>
</svg>
