<svg width="91" height="91" viewBox="0 0 91 91" fill="none" xmlns="http://www.w3.org/2000/svg">
<path d="M81.515 9.50808C72.9297 0.955856 60.5852 0 45.5 0C30.3958 0 18.0326 0.966875 9.45085 9.5422C0.870364 18.114 0 30.4573 0 45.5443C0 60.6337 0.870365 72.9808 9.4544 81.5555C18.0356 90.1321 30.3974 91.0002 45.5 91.0002C60.6028 91.0002 72.9624 90.1321 81.5436 81.5555C90.1271 72.9791 91 60.6337 91 45.5443C91 30.4379 90.1177 18.0813 81.515 9.50808Z" fill="#FF6900"/>
<path d="M71.9032 28.1896C72.2158 28.1896 72.476 28.4414 72.476 28.7514V62.4118C72.476 62.7166 72.2158 62.9697 71.9032 62.9697H64.5279C64.2114 62.9697 63.9542 62.7166 63.9542 62.4118V28.7514C63.9542 28.4416 64.2112 28.1896 64.5279 28.1896H71.9032ZM39.8971 28.1896C45.4607 28.1896 51.278 28.4446 54.1471 31.3157C56.968 34.1412 57.2735 39.7668 57.2852 45.2299V62.4116C57.2852 62.7164 57.0282 62.9695 56.7131 62.9695H49.3389C49.0231 62.9695 48.765 62.7164 48.765 62.4116V44.9343C48.7572 41.8831 48.5817 38.7474 47.0083 37.1687C45.6539 35.8106 43.1267 35.4996 40.4987 35.4351H27.1313C26.8178 35.4351 26.5612 35.6873 26.5612 35.9925V62.4118C26.5612 62.7166 26.3013 62.9697 25.9858 62.9697H18.607C18.2917 62.9697 18.0381 62.7166 18.0381 62.4118V28.7514C18.0381 28.4416 18.2915 28.1896 18.607 28.1896H39.8971ZM41.5477 41.5955C41.8616 41.5955 42.1167 41.8467 42.1167 42.1542V62.4118C42.1167 62.7166 41.8614 62.9697 41.5477 62.9697H33.8014C33.4829 62.9697 33.2276 62.7166 33.2276 62.4118V42.1542C33.2276 41.8467 33.4829 41.5955 33.8014 41.5955H41.5477Z" fill="white"/>
</svg>
