<svg width="34" height="34" viewBox="0 0 34 34" fill="none" xmlns="http://www.w3.org/2000/svg">
<path d="M18.55 17.2712V12.35C18.55 11.9108 18.4017 11.5424 18.1052 11.2448C17.8076 10.9483 17.4392 10.8 17 10.8C16.5608 10.8 16.193 10.9483 15.8964 11.2448C15.5988 11.5424 15.45 11.9108 15.45 12.35V17C15.45 17.5167 15.5404 17.9946 15.7212 18.4338C15.9021 18.8729 16.1733 19.2733 16.535 19.635L19.8287 22.9287C20.1388 23.2387 20.5071 23.3937 20.9339 23.3937C21.3596 23.3937 21.7275 23.2387 22.0375 22.9287C22.3217 22.6187 22.4637 22.2509 22.4637 21.8251C22.4637 21.3984 22.3217 21.0429 22.0375 20.7587L18.55 17.2712ZM17 4.6C16.5608 4.6 16.193 4.74828 15.8964 5.04485C15.5988 5.34245 15.45 5.71083 15.45 6.15C15.45 6.58917 15.5988 6.95755 15.8964 7.25515C16.193 7.55172 16.5608 7.7 17 7.7C17.4392 7.7 17.8076 7.55172 18.1052 7.25515C18.4017 6.95755 18.55 6.58917 18.55 6.15C18.55 5.71083 18.4017 5.34245 18.1052 5.04485C17.8076 4.74828 17.4392 4.6 17 4.6ZM29.4 17C29.4 16.5608 29.2512 16.1924 28.9536 15.8948C28.657 15.5983 28.2892 15.45 27.85 15.45C27.4108 15.45 27.043 15.5983 26.7464 15.8948C26.4488 16.1924 26.3 16.5608 26.3 17C26.3 17.4392 26.4488 17.807 26.7464 18.1036C27.043 18.4012 27.4108 18.55 27.85 18.55C28.2892 18.55 28.657 18.4012 28.9536 18.1036C29.2512 17.807 29.4 17.4392 29.4 17ZM17 26.3C16.5608 26.3 16.193 26.4488 15.8964 26.7464C15.5988 27.043 15.45 27.4108 15.45 27.85C15.45 28.2892 15.5988 28.657 15.8964 28.9536C16.193 29.2512 16.5608 29.4 17 29.4C17.4392 29.4 17.8076 29.2512 18.1052 28.9536C18.4017 28.657 18.55 28.2892 18.55 27.85C18.55 27.4108 18.4017 27.043 18.1052 26.7464C17.8076 26.4488 17.4392 26.3 17 26.3ZM7.7 17C7.7 16.5608 7.55172 16.1924 7.25515 15.8948C6.95755 15.5983 6.58917 15.45 6.15 15.45C5.71083 15.45 5.34245 15.5983 5.04485 15.8948C4.74828 16.1924 4.6 16.5608 4.6 17C4.6 17.4392 4.74828 17.807 5.04485 18.1036C5.34245 18.4012 5.71083 18.55 6.15 18.55C6.58917 18.55 6.95755 18.4012 7.25515 18.1036C7.55172 17.807 7.7 17.4392 7.7 17ZM17 32.5C14.8558 32.5 12.8408 32.0929 10.955 31.2786C9.06917 30.4654 7.42875 29.3612 6.03375 27.9662C4.63875 26.5713 3.53463 24.9308 2.7214 23.045C1.90713 21.1592 1.5 19.1442 1.5 17C1.5 14.8558 1.90713 12.8408 2.7214 10.955C3.53463 9.06917 4.63875 7.42875 6.03375 6.03375C7.42875 4.63875 9.06917 3.53412 10.955 2.71985C12.8408 1.90662 14.8558 1.5 17 1.5C19.1442 1.5 21.1592 1.90662 23.045 2.71985C24.9308 3.53412 26.5713 4.63875 27.9662 6.03375C29.3612 7.42875 30.4654 9.06917 31.2786 10.955C32.0929 12.8408 32.5 14.8558 32.5 17C32.5 19.1442 32.0929 21.1592 31.2786 23.045C30.4654 24.9308 29.3612 26.5713 27.9662 27.9662C26.5713 29.3612 24.9308 30.4654 23.045 31.2786C21.1592 32.0929 19.1442 32.5 17 32.5Z" fill="black"/>
</svg>
