<svg width="227" height="42" viewBox="0 0 227 42" fill="none" xmlns="http://www.w3.org/2000/svg">
<rect width="227" height="42" fill="black"/>
<path d="M34.5547 6.91016V16.0703H33.832C33.5977 14.3125 33.1745 12.9128 32.5625 11.8711C32.263 11.3503 31.8854 10.8815 31.4297 10.4648C30.987 10.0482 30.4987 9.69661 29.9648 9.41016C29.444 9.11068 28.8841 8.88281 28.2852 8.72656C27.6992 8.55729 27.1068 8.47266 26.5078 8.47266C25.8438 8.47266 25.2253 8.58984 24.6523 8.82422C24.0794 9.04557 23.5781 9.34505 23.1484 9.72266C22.7318 10.1003 22.4062 10.5365 22.1719 11.0312C21.9375 11.513 21.8203 12.0143 21.8203 12.5352C21.8203 13.2643 21.9896 13.9023 22.3281 14.4492C22.6667 14.9831 23.1289 15.4779 23.7148 15.9336C24.3138 16.3893 25.0104 16.832 25.8047 17.2617C26.612 17.6914 27.4844 18.1536 28.4219 18.6484C29.4766 19.2083 30.4792 19.7552 31.4297 20.2891C32.3802 20.8229 33.2135 21.4154 33.9297 22.0664C34.6589 22.7044 35.2383 23.4401 35.668 24.2734C36.0977 25.0938 36.3125 26.0833 36.3125 27.2422C36.3125 28.2318 36.1042 29.1758 35.6875 30.0742C35.2839 30.9596 34.7109 31.7409 33.9688 32.418C33.2396 33.082 32.3607 33.6094 31.332 34C30.3164 34.4036 29.1966 34.6055 27.9727 34.6055C27.5169 34.6055 27.1263 34.599 26.8008 34.5859C26.4753 34.5729 26.1628 34.5404 25.8633 34.4883C25.5638 34.4492 25.2513 34.3776 24.9258 34.2734C24.6133 34.1823 24.2357 34.0521 23.793 33.8828C23.4805 33.7656 23.1615 33.6615 22.8359 33.5703C22.5104 33.4661 22.2109 33.3815 21.9375 33.3164C21.6641 33.2513 21.4297 33.1992 21.2344 33.1602C21.0521 33.1211 20.9349 33.1016 20.8828 33.1016C20.5573 33.1016 20.2969 33.1992 20.1016 33.3945C19.9193 33.5898 19.7826 33.9935 19.6914 34.6055H18.9688V25.5234H19.6914C19.8607 26.474 20.056 27.3073 20.2773 28.0234C20.5117 28.7266 20.7721 29.319 21.0586 29.8008C21.3451 30.2695 21.7161 30.7057 22.1719 31.1094C22.6276 31.513 23.1354 31.8646 23.6953 32.1641C24.2682 32.4505 24.8802 32.6784 25.5312 32.8477C26.1953 33.0039 26.8724 33.082 27.5625 33.082C28.3828 33.082 29.1185 32.9648 29.7695 32.7305C30.4206 32.4961 30.974 32.1836 31.4297 31.793C31.8854 31.3893 32.2305 30.9271 32.4648 30.4062C32.7122 29.8724 32.8359 29.319 32.8359 28.7461C32.8359 27.8997 32.6602 27.1901 32.3086 26.6172C31.957 26.0312 31.4818 25.5104 30.8828 25.0547C30.2969 24.599 29.6068 24.1628 28.8125 23.7461C28.0312 23.3294 27.2044 22.8607 26.332 22.3398C25.3424 21.7539 24.3854 21.2005 23.4609 20.6797C22.5495 20.1458 21.7422 19.5664 21.0391 18.9414C20.3359 18.3034 19.7695 17.5807 19.3398 16.7734C18.9232 15.9661 18.7148 15.0026 18.7148 13.8828C18.7148 12.9453 18.9102 12.0534 19.3008 11.207C19.6914 10.3607 20.2318 9.61849 20.9219 8.98047C21.612 8.34245 22.4258 7.84115 23.3633 7.47656C24.3138 7.09896 25.349 6.91016 26.4688 6.91016C27.849 6.91016 29.3398 7.25521 30.9414 7.94531C31.6445 8.27083 32.1589 8.43359 32.4844 8.43359C32.8229 8.43359 33.0964 8.33594 33.3047 8.14062C33.526 7.93229 33.7018 7.52214 33.832 6.91016H34.5547ZM75.9219 7.51562V8.23828C75.5703 8.23828 75.2578 8.27083 74.9844 8.33594C74.7109 8.38802 74.457 8.48568 74.2227 8.62891C74.0013 8.75911 73.793 8.9349 73.5977 9.15625C73.4023 9.3776 73.207 9.65755 73.0117 9.99609C72.7643 10.4388 72.3542 11.526 71.7812 13.2578L64.3984 34.6055H63.6172L57.582 17.6719L51.5859 34.6055H50.8828L43.0117 12.6133C42.4128 10.9466 42.0417 9.97656 41.8984 9.70312C41.638 9.20833 41.2865 8.84375 40.8438 8.60938C40.401 8.36198 39.7891 8.23828 39.0078 8.23828V7.51562H48.8125V8.23828H48.3438C47.6406 8.23828 47.1068 8.39453 46.7422 8.70703C46.3906 9.01953 46.2148 9.39714 46.2148 9.83984C46.2148 10.0612 46.2799 10.4388 46.4102 10.9727C46.5534 11.4935 46.7747 12.1641 47.0742 12.9844L52.2891 27.8477L56.6836 15.2109L55.2773 11.207C55.069 10.7253 54.8542 10.3021 54.6328 9.9375C54.4245 9.57292 54.1771 9.26693 53.8906 9.01953C53.6172 8.75911 53.2917 8.5638 52.9141 8.43359C52.5495 8.30339 52.1068 8.23828 51.5859 8.23828V7.51562H61.8984V8.23828H61.1953C60.4531 8.23828 59.9128 8.39453 59.5742 8.70703C59.2487 9.00651 59.0859 9.42969 59.0859 9.97656C59.0859 10.6406 59.3789 11.7995 59.9648 13.4531L65.043 27.8477L70.082 13.2578C70.6549 11.6172 70.9414 10.4974 70.9414 9.89844C70.9414 9.28646 70.668 8.85677 70.1211 8.60938C69.5742 8.36198 68.8711 8.23828 68.0117 8.23828V7.51562H75.9219ZM88.5977 33.2773V34H77.25V33.2773H78.1875C79.2943 33.2773 80.0885 32.9583 80.5703 32.3203C80.8828 31.9167 81.0391 30.9141 81.0391 29.3125V12.2031C81.0391 11.5781 81.026 11.0703 81 10.6797C80.974 10.2891 80.9219 9.97005 80.8438 9.72266C80.7786 9.46224 80.6745 9.26042 80.5312 9.11719C80.401 8.97396 80.2188 8.83724 79.9844 8.70703C79.4115 8.39453 78.8125 8.23828 78.1875 8.23828H77.25V7.51562H88.5977V8.23828H87.6406C86.5469 8.23828 85.7591 8.55729 85.2773 9.19531C84.9518 9.59896 84.7891 10.6016 84.7891 12.2031V29.3125C84.7891 29.9375 84.8021 30.4453 84.8281 30.8359C84.8542 31.2266 84.8997 31.5456 84.9648 31.793C85.043 32.0404 85.1536 32.2422 85.2969 32.3984C85.4401 32.5417 85.6289 32.6784 85.8633 32.8086C86.4232 33.1211 87.0156 33.2773 87.6406 33.2773H88.5977ZM97.7578 8.96094V19.3711H102.582C103.142 19.3711 103.617 19.319 104.008 19.2148C104.411 19.1107 104.75 18.9219 105.023 18.6484C105.297 18.375 105.512 18.0039 105.668 17.5352C105.824 17.0664 105.948 16.4674 106.039 15.7383H106.762V24.7031H106.039C106.026 24.0391 105.961 23.4727 105.844 23.0039C105.727 22.5352 105.538 22.151 105.277 21.8516C105.017 21.5521 104.665 21.3372 104.223 21.207C103.793 21.0638 103.246 20.9922 102.582 20.9922H97.7578V29.3125C97.7578 29.9375 97.7708 30.4453 97.7969 30.8359C97.8229 31.2266 97.8685 31.5456 97.9336 31.793C98.0117 32.0404 98.1224 32.2422 98.2656 32.3984C98.4089 32.5417 98.5977 32.6784 98.832 32.8086C99.3919 33.1211 99.9909 33.2773 100.629 33.2773H101.586V34H90.2188V33.2773H91.1562C92.263 33.2773 93.0573 32.9583 93.5391 32.3203C93.8516 31.9167 94.0078 30.9141 94.0078 29.3125V12.2031C94.0078 11.5781 93.9948 11.0703 93.9688 10.6797C93.9427 10.2891 93.8906 9.97005 93.8125 9.72266C93.7474 9.46224 93.6432 9.26042 93.5 9.11719C93.3698 8.97396 93.1875 8.83724 92.9531 8.70703C92.3802 8.39453 91.7812 8.23828 91.1562 8.23828H90.2188V7.51562H109.926V13.3359H109.496C109.236 12.3854 108.943 11.6237 108.617 11.0508C108.305 10.4779 107.914 10.0352 107.445 9.72266C106.99 9.41016 106.449 9.20833 105.824 9.11719C105.199 9.01302 104.457 8.96094 103.598 8.96094H97.7578ZM134.984 7.51562V13.7266H134.535C134.431 12.8932 134.255 12.1901 134.008 11.6172C133.773 11.0312 133.461 10.5625 133.07 10.2109C132.68 9.84635 132.204 9.58594 131.645 9.42969C131.085 9.26042 130.434 9.17578 129.691 9.17578H125.961V29.4102C125.961 31.0378 126.137 32.0534 126.488 32.457C126.97 33.0039 127.732 33.2773 128.773 33.2773H129.691V34H118.461V33.2773H119.398C120.518 33.2773 121.312 32.9388 121.781 32.2617C122.068 31.8581 122.211 30.9076 122.211 29.4102V9.17578H119.027C118.22 9.17578 117.517 9.23438 116.918 9.35156C116.319 9.46875 115.811 9.6901 115.395 10.0156C114.978 10.3411 114.639 10.8034 114.379 11.4023C114.118 12.0013 113.923 12.776 113.793 13.7266H113.051V7.51562H134.984ZM154.477 8.96094V19.3711H159.301C159.861 19.3711 160.336 19.319 160.727 19.2148C161.13 19.1107 161.469 18.9219 161.742 18.6484C162.016 18.375 162.23 18.0039 162.387 17.5352C162.543 17.0664 162.667 16.4674 162.758 15.7383H163.48V24.7031H162.758C162.745 24.0391 162.68 23.4727 162.562 23.0039C162.445 22.5352 162.257 22.151 161.996 21.8516C161.736 21.5521 161.384 21.3372 160.941 21.207C160.512 21.0638 159.965 20.9922 159.301 20.9922H154.477V29.3125C154.477 29.9375 154.49 30.4453 154.516 30.8359C154.542 31.2266 154.587 31.5456 154.652 31.793C154.73 32.0404 154.841 32.2422 154.984 32.3984C155.128 32.5417 155.316 32.6784 155.551 32.8086C156.111 33.1211 156.71 33.2773 157.348 33.2773H158.305V34H146.938V33.2773H147.875C148.982 33.2773 149.776 32.9583 150.258 32.3203C150.57 31.9167 150.727 30.9141 150.727 29.3125V12.2031C150.727 11.5781 150.714 11.0703 150.688 10.6797C150.661 10.2891 150.609 9.97005 150.531 9.72266C150.466 9.46224 150.362 9.26042 150.219 9.11719C150.089 8.97396 149.906 8.83724 149.672 8.70703C149.099 8.39453 148.5 8.23828 147.875 8.23828H146.938V7.51562H166.645V13.3359H166.215C165.954 12.3854 165.661 11.6237 165.336 11.0508C165.023 10.4779 164.633 10.0352 164.164 9.72266C163.708 9.41016 163.168 9.20833 162.543 9.11719C161.918 9.01302 161.176 8.96094 160.316 8.96094H154.477ZM180.902 33.2773V34H169.555V33.2773H170.492C171.599 33.2773 172.393 32.9583 172.875 32.3203C173.188 31.9167 173.344 30.9141 173.344 29.3125V12.2031C173.344 11.5781 173.331 11.0703 173.305 10.6797C173.279 10.2891 173.227 9.97005 173.148 9.72266C173.083 9.46224 172.979 9.26042 172.836 9.11719C172.706 8.97396 172.523 8.83724 172.289 8.70703C171.716 8.39453 171.117 8.23828 170.492 8.23828H169.555V7.51562H180.902V8.23828H179.945C178.852 8.23828 178.064 8.55729 177.582 9.19531C177.257 9.59896 177.094 10.6016 177.094 12.2031V29.3125C177.094 29.9375 177.107 30.4453 177.133 30.8359C177.159 31.2266 177.204 31.5456 177.27 31.793C177.348 32.0404 177.458 32.2422 177.602 32.3984C177.745 32.5417 177.934 32.6784 178.168 32.8086C178.728 33.1211 179.32 33.2773 179.945 33.2773H180.902ZM198.207 19.332L203.891 27.8086C204.685 28.9935 205.368 29.957 205.941 30.6992C206.527 31.4284 207.009 31.9492 207.387 32.2617C208.142 32.8737 209.112 33.2122 210.297 33.2773V34H198.93V33.2773C199.828 33.2513 200.486 33.1146 200.902 32.8672C201.332 32.6198 201.547 32.2552 201.547 31.7734C201.547 31.6042 201.547 31.474 201.547 31.3828C201.56 31.2786 201.527 31.1484 201.449 30.9922C201.384 30.8359 201.26 30.6211 201.078 30.3477C200.909 30.0742 200.648 29.6771 200.297 29.1562L195.805 22.3594L190.258 29.4688C189.945 29.8594 189.704 30.1719 189.535 30.4062C189.379 30.6406 189.262 30.8359 189.184 30.9922C189.105 31.1484 189.06 31.2852 189.047 31.4023C189.034 31.5065 189.027 31.6302 189.027 31.7734C189.027 31.9818 189.066 32.1771 189.145 32.3594C189.223 32.5286 189.359 32.6784 189.555 32.8086C189.75 32.9388 190.01 33.0495 190.336 33.1406C190.661 33.2188 191.072 33.2643 191.566 33.2773V34H182.172V33.2773C182.992 33.2122 183.715 33.0169 184.34 32.6914C184.978 32.3659 185.596 31.9688 186.195 31.5C186.938 30.9141 187.771 30.0352 188.695 28.8633L194.945 20.9727L189.73 13.3359C188.298 11.2656 187.094 9.91146 186.117 9.27344C185.115 8.6224 183.975 8.27734 182.699 8.23828V7.51562H194.945V8.23828C194.424 8.26432 193.988 8.32292 193.637 8.41406C193.285 8.50521 193.005 8.6224 192.797 8.76562C192.589 8.89583 192.439 9.04557 192.348 9.21484C192.27 9.38411 192.23 9.5599 192.23 9.74219C192.23 10.237 192.543 10.9401 193.168 11.8516L197.23 17.9258L201.938 11.9688C202.224 11.6042 202.445 11.3112 202.602 11.0898C202.771 10.8685 202.895 10.6797 202.973 10.5234C203.051 10.3672 203.096 10.2305 203.109 10.1133C203.122 9.99609 203.129 9.86589 203.129 9.72266C203.129 9.42318 203.031 9.15625 202.836 8.92188C202.641 8.6875 202.413 8.52474 202.152 8.43359C202.009 8.38151 201.781 8.34245 201.469 8.31641C201.156 8.27734 200.766 8.2513 200.297 8.23828V7.51562H209.691V8.23828C209.249 8.26432 208.852 8.32292 208.5 8.41406C208.148 8.49219 207.823 8.59635 207.523 8.72656C207.237 8.85677 206.964 9.01302 206.703 9.19531C206.443 9.3776 206.189 9.57943 205.941 9.80078C205.382 10.2956 204.555 11.2331 203.461 12.6133L198.207 19.332Z" fill="white"/>
</svg>
