<svg width="34" height="34" viewBox="0 0 34 34" fill="none" xmlns="http://www.w3.org/2000/svg">
<path d="M16.9999 16.2917C16.0606 16.2917 15.1598 15.9185 14.4956 15.2543C13.8314 14.5901 13.4583 13.6893 13.4583 12.75C13.4583 11.8107 13.8314 10.9099 14.4956 10.2457C15.1598 9.58147 16.0606 9.20833 16.9999 9.20833C17.9392 9.20833 18.8401 9.58147 19.5043 10.2457C20.1684 10.9099 20.5416 11.8107 20.5416 12.75C20.5416 13.2151 20.45 13.6756 20.272 14.1053C20.094 14.535 19.8331 14.9255 19.5043 15.2543C19.1754 15.5832 18.785 15.8441 18.3553 16.0221C17.9256 16.2001 17.465 16.2917 16.9999 16.2917ZM16.9999 2.83333C14.3699 2.83333 11.8475 3.87812 9.98778 5.73785C8.12804 7.59759 7.08325 10.1199 7.08325 12.75C7.08325 20.1875 16.9999 31.1667 16.9999 31.1667C16.9999 31.1667 26.9166 20.1875 26.9166 12.75C26.9166 10.1199 25.8718 7.59759 24.0121 5.73785C22.1523 3.87812 19.63 2.83333 16.9999 2.83333Z" fill="black"/>
</svg>
