<svg width="34" height="35" viewBox="0 0 34 35" fill="none" xmlns="http://www.w3.org/2000/svg">
<path d="M26.9167 17.4292C26.9167 14.6667 25.9543 12.323 24.0295 10.3983C22.1057 8.47442 19.7625 7.5125 17 7.5125V4.67917C18.7708 4.67917 20.4297 5.01539 21.9767 5.68784C23.5228 6.36122 24.8686 7.27072 26.0142 8.41633C27.1589 9.561 28.0679 10.9068 28.7413 12.4538C29.4138 13.9999 29.75 15.6583 29.75 17.4292H26.9167ZM21.25 17.4292C21.25 16.2486 20.8368 15.2451 20.0104 14.4188C19.184 13.5924 18.1806 13.1792 17 13.1792V10.3458C18.9597 10.3458 20.6304 11.0362 22.0122 12.417C23.3929 13.7987 24.0833 15.4694 24.0833 17.4292H21.25ZM28.2625 30.25C25.2167 30.25 22.2478 29.5709 19.3559 28.2128C16.4631 26.8557 13.9013 25.0612 11.6705 22.8295C9.43878 20.5987 7.64433 18.0369 6.28717 15.1441C4.92906 12.2522 4.25 9.28334 4.25 6.2375C4.25 5.8125 4.39167 5.45834 4.675 5.175C4.95833 4.89167 5.3125 4.75 5.7375 4.75H11.475C11.8056 4.75 12.1007 4.85625 12.3604 5.06875C12.6201 5.28125 12.7736 5.55278 12.8208 5.88334L13.7417 10.8417C13.7889 11.1722 13.7832 11.473 13.7247 11.7441C13.6652 12.0161 13.5292 12.2583 13.3167 12.4708L9.91667 15.9417C10.9083 17.6417 12.1479 19.2354 13.6354 20.7229C15.1229 22.2104 16.7639 23.4972 18.5583 24.5833L21.8875 21.2542C22.1 21.0417 22.3777 20.8821 22.7205 20.7753C23.0624 20.6696 23.3986 20.6403 23.7292 20.6875L28.6167 21.6792C28.9472 21.75 29.2187 21.9091 29.4312 22.1566C29.6437 22.405 29.75 22.6944 29.75 23.025V28.7625C29.75 29.1875 29.6083 29.5417 29.325 29.825C29.0417 30.1083 28.6875 30.25 28.2625 30.25Z" fill="black"/>
</svg>
