<svg width="44" height="44" viewBox="0 0 44 44" fill="none" xmlns="http://www.w3.org/2000/svg">
<g clip-path="url(#clip0_208_263)">
<path d="M0.00882943 44L2.98323 33.0704C1.02333 29.7107 -0.00635939 25.8896 2.95509e-05 22C2.95509e-05 9.84939 9.84942 0 22 0C34.1506 0 44 9.84939 44 22C44 34.1506 34.1506 44 22 44C18.1121 44.0062 14.2927 42.9773 10.934 41.019L0.00882943 44ZM14.0602 11.6776C13.7761 11.6952 13.4985 11.7701 13.244 11.8976C13.0054 12.0327 12.7875 12.2017 12.5972 12.3992C12.3332 12.6478 12.1836 12.8634 12.023 13.0724C11.2099 14.1306 10.7726 15.4295 10.78 16.764C10.7844 17.842 11.066 18.8914 11.506 19.8726C12.4058 21.857 13.8864 23.958 15.8422 25.905C16.313 26.3736 16.7728 26.8444 17.2678 27.2822C19.6953 29.4194 22.588 30.9607 25.7158 31.7834L26.9676 31.9748C27.3746 31.9968 27.7816 31.966 28.1908 31.9462C28.8315 31.9131 29.4572 31.7396 30.0234 31.438C30.3115 31.2896 30.5927 31.1281 30.866 30.954C30.866 30.954 30.9606 30.8924 31.141 30.756C31.438 30.536 31.6206 30.3798 31.867 30.1224C32.0496 29.9332 32.208 29.711 32.329 29.458C32.5006 29.0994 32.6722 28.4152 32.7426 27.8454C32.7954 27.4098 32.78 27.1722 32.7734 27.0248C32.7646 26.7894 32.5688 26.5452 32.3554 26.4418L31.075 25.8676C31.075 25.8676 29.161 25.0338 27.9928 24.5014C27.8696 24.4477 27.7376 24.4171 27.6034 24.4112C27.4529 24.3957 27.3008 24.4127 27.1574 24.4609C27.0139 24.509 26.8825 24.5874 26.7718 24.6906V24.6862C26.7608 24.6862 26.6134 24.8116 25.0228 26.7388C24.9315 26.8615 24.8058 26.9542 24.6616 27.0051C24.5174 27.056 24.3613 27.0629 24.2132 27.0248C24.0699 26.9865 23.9294 26.9379 23.793 26.8796C23.5202 26.7652 23.4256 26.7212 23.2386 26.6398L23.2276 26.6354C21.969 26.0859 20.8037 25.3436 19.7736 24.4354C19.4964 24.1934 19.239 23.9294 18.975 23.6742C18.1095 22.8453 17.3552 21.9076 16.731 20.8846L16.6012 20.6756C16.508 20.5352 16.4326 20.3837 16.3768 20.2246C16.2932 19.9012 16.511 19.6416 16.511 19.6416C16.511 19.6416 17.0456 19.0564 17.2942 18.7396C17.5012 18.4763 17.6943 18.2024 17.8728 17.919C18.1324 17.501 18.2138 17.072 18.0774 16.7398C17.4614 15.235 16.8234 13.7368 16.1678 12.2496C16.038 11.9548 15.653 11.7436 15.3032 11.7018C15.1844 11.6886 15.0656 11.6754 14.9468 11.6666C14.6514 11.6519 14.3553 11.6571 14.0602 11.6776Z" fill="black"/>
</g>
<defs>
<clipPath id="clip0_208_263">
<rect width="44" height="44" fill="white"/>
</clipPath>
</defs>
</svg>
